%TF.GenerationSoftware,KiCad,Pcbnew,9.0.2*%
%TF.CreationDate,2025-08-31T18:29:42+02:00*%
%TF.ProjectId,PocketGamePCB,506f636b-6574-4476-916d-655043422e6b,rev?*%
%TF.SameCoordinates,Original*%
%TF.FileFunction,Legend,Top*%
%TF.FilePolarity,Positive*%
%FSLAX46Y46*%
G04 Gerber Fmt 4.6, Leading zero omitted, Abs format (unit mm)*
G04 Created by KiCad (PCBNEW 9.0.2) date 2025-08-31 18:29:42*
%MOMM*%
%LPD*%
G01*
G04 APERTURE LIST*
%ADD10C,0.150000*%
%ADD11C,0.120000*%
G04 APERTURE END LIST*
D10*
X169042857Y-97698342D02*
X168985715Y-97669771D01*
X168985715Y-97669771D02*
X168900000Y-97669771D01*
X168900000Y-97669771D02*
X168814286Y-97698342D01*
X168814286Y-97698342D02*
X168757143Y-97755485D01*
X168757143Y-97755485D02*
X168728572Y-97812628D01*
X168728572Y-97812628D02*
X168700000Y-97926914D01*
X168700000Y-97926914D02*
X168700000Y-98012628D01*
X168700000Y-98012628D02*
X168728572Y-98126914D01*
X168728572Y-98126914D02*
X168757143Y-98184057D01*
X168757143Y-98184057D02*
X168814286Y-98241200D01*
X168814286Y-98241200D02*
X168900000Y-98269771D01*
X168900000Y-98269771D02*
X168957143Y-98269771D01*
X168957143Y-98269771D02*
X169042857Y-98241200D01*
X169042857Y-98241200D02*
X169071429Y-98212628D01*
X169071429Y-98212628D02*
X169071429Y-98012628D01*
X169071429Y-98012628D02*
X168957143Y-98012628D01*
X169328572Y-98269771D02*
X169328572Y-97669771D01*
X169328572Y-97669771D02*
X169671429Y-98269771D01*
X169671429Y-98269771D02*
X169671429Y-97669771D01*
X169957143Y-98269771D02*
X169957143Y-97669771D01*
X169957143Y-97669771D02*
X170100000Y-97669771D01*
X170100000Y-97669771D02*
X170185714Y-97698342D01*
X170185714Y-97698342D02*
X170242857Y-97755485D01*
X170242857Y-97755485D02*
X170271428Y-97812628D01*
X170271428Y-97812628D02*
X170300000Y-97926914D01*
X170300000Y-97926914D02*
X170300000Y-98012628D01*
X170300000Y-98012628D02*
X170271428Y-98126914D01*
X170271428Y-98126914D02*
X170242857Y-98184057D01*
X170242857Y-98184057D02*
X170185714Y-98241200D01*
X170185714Y-98241200D02*
X170100000Y-98269771D01*
X170100000Y-98269771D02*
X169957143Y-98269771D01*
X174400000Y-98212628D02*
X174371428Y-98241200D01*
X174371428Y-98241200D02*
X174285714Y-98269771D01*
X174285714Y-98269771D02*
X174228571Y-98269771D01*
X174228571Y-98269771D02*
X174142857Y-98241200D01*
X174142857Y-98241200D02*
X174085714Y-98184057D01*
X174085714Y-98184057D02*
X174057143Y-98126914D01*
X174057143Y-98126914D02*
X174028571Y-98012628D01*
X174028571Y-98012628D02*
X174028571Y-97926914D01*
X174028571Y-97926914D02*
X174057143Y-97812628D01*
X174057143Y-97812628D02*
X174085714Y-97755485D01*
X174085714Y-97755485D02*
X174142857Y-97698342D01*
X174142857Y-97698342D02*
X174228571Y-97669771D01*
X174228571Y-97669771D02*
X174285714Y-97669771D01*
X174285714Y-97669771D02*
X174371428Y-97698342D01*
X174371428Y-97698342D02*
X174400000Y-97726914D01*
X174628571Y-98241200D02*
X174714286Y-98269771D01*
X174714286Y-98269771D02*
X174857143Y-98269771D01*
X174857143Y-98269771D02*
X174914286Y-98241200D01*
X174914286Y-98241200D02*
X174942857Y-98212628D01*
X174942857Y-98212628D02*
X174971428Y-98155485D01*
X174971428Y-98155485D02*
X174971428Y-98098342D01*
X174971428Y-98098342D02*
X174942857Y-98041200D01*
X174942857Y-98041200D02*
X174914286Y-98012628D01*
X174914286Y-98012628D02*
X174857143Y-97984057D01*
X174857143Y-97984057D02*
X174742857Y-97955485D01*
X174742857Y-97955485D02*
X174685714Y-97926914D01*
X174685714Y-97926914D02*
X174657143Y-97898342D01*
X174657143Y-97898342D02*
X174628571Y-97841200D01*
X174628571Y-97841200D02*
X174628571Y-97784057D01*
X174628571Y-97784057D02*
X174657143Y-97726914D01*
X174657143Y-97726914D02*
X174685714Y-97698342D01*
X174685714Y-97698342D02*
X174742857Y-97669771D01*
X174742857Y-97669771D02*
X174885714Y-97669771D01*
X174885714Y-97669771D02*
X174971428Y-97698342D01*
X182042857Y-98269771D02*
X182042857Y-97669771D01*
X182042857Y-97669771D02*
X182185714Y-97669771D01*
X182185714Y-97669771D02*
X182271428Y-97698342D01*
X182271428Y-97698342D02*
X182328571Y-97755485D01*
X182328571Y-97755485D02*
X182357142Y-97812628D01*
X182357142Y-97812628D02*
X182385714Y-97926914D01*
X182385714Y-97926914D02*
X182385714Y-98012628D01*
X182385714Y-98012628D02*
X182357142Y-98126914D01*
X182357142Y-98126914D02*
X182328571Y-98184057D01*
X182328571Y-98184057D02*
X182271428Y-98241200D01*
X182271428Y-98241200D02*
X182185714Y-98269771D01*
X182185714Y-98269771D02*
X182042857Y-98269771D01*
X182985714Y-98212628D02*
X182957142Y-98241200D01*
X182957142Y-98241200D02*
X182871428Y-98269771D01*
X182871428Y-98269771D02*
X182814285Y-98269771D01*
X182814285Y-98269771D02*
X182728571Y-98241200D01*
X182728571Y-98241200D02*
X182671428Y-98184057D01*
X182671428Y-98184057D02*
X182642857Y-98126914D01*
X182642857Y-98126914D02*
X182614285Y-98012628D01*
X182614285Y-98012628D02*
X182614285Y-97926914D01*
X182614285Y-97926914D02*
X182642857Y-97812628D01*
X182642857Y-97812628D02*
X182671428Y-97755485D01*
X182671428Y-97755485D02*
X182728571Y-97698342D01*
X182728571Y-97698342D02*
X182814285Y-97669771D01*
X182814285Y-97669771D02*
X182871428Y-97669771D01*
X182871428Y-97669771D02*
X182957142Y-97698342D01*
X182957142Y-97698342D02*
X182985714Y-97726914D01*
X166142857Y-97669771D02*
X166514285Y-97669771D01*
X166514285Y-97669771D02*
X166314285Y-97898342D01*
X166314285Y-97898342D02*
X166400000Y-97898342D01*
X166400000Y-97898342D02*
X166457143Y-97926914D01*
X166457143Y-97926914D02*
X166485714Y-97955485D01*
X166485714Y-97955485D02*
X166514285Y-98012628D01*
X166514285Y-98012628D02*
X166514285Y-98155485D01*
X166514285Y-98155485D02*
X166485714Y-98212628D01*
X166485714Y-98212628D02*
X166457143Y-98241200D01*
X166457143Y-98241200D02*
X166400000Y-98269771D01*
X166400000Y-98269771D02*
X166228571Y-98269771D01*
X166228571Y-98269771D02*
X166171428Y-98241200D01*
X166171428Y-98241200D02*
X166142857Y-98212628D01*
X166771429Y-98212628D02*
X166800000Y-98241200D01*
X166800000Y-98241200D02*
X166771429Y-98269771D01*
X166771429Y-98269771D02*
X166742857Y-98241200D01*
X166742857Y-98241200D02*
X166771429Y-98212628D01*
X166771429Y-98212628D02*
X166771429Y-98269771D01*
X167000000Y-97669771D02*
X167371428Y-97669771D01*
X167371428Y-97669771D02*
X167171428Y-97898342D01*
X167171428Y-97898342D02*
X167257143Y-97898342D01*
X167257143Y-97898342D02*
X167314286Y-97926914D01*
X167314286Y-97926914D02*
X167342857Y-97955485D01*
X167342857Y-97955485D02*
X167371428Y-98012628D01*
X167371428Y-98012628D02*
X167371428Y-98155485D01*
X167371428Y-98155485D02*
X167342857Y-98212628D01*
X167342857Y-98212628D02*
X167314286Y-98241200D01*
X167314286Y-98241200D02*
X167257143Y-98269771D01*
X167257143Y-98269771D02*
X167085714Y-98269771D01*
X167085714Y-98269771D02*
X167028571Y-98241200D01*
X167028571Y-98241200D02*
X167000000Y-98212628D01*
X167571429Y-97869771D02*
X167714286Y-98269771D01*
X167714286Y-98269771D02*
X167857143Y-97869771D01*
X186728571Y-98241200D02*
X186814286Y-98269771D01*
X186814286Y-98269771D02*
X186957143Y-98269771D01*
X186957143Y-98269771D02*
X187014286Y-98241200D01*
X187014286Y-98241200D02*
X187042857Y-98212628D01*
X187042857Y-98212628D02*
X187071428Y-98155485D01*
X187071428Y-98155485D02*
X187071428Y-98098342D01*
X187071428Y-98098342D02*
X187042857Y-98041200D01*
X187042857Y-98041200D02*
X187014286Y-98012628D01*
X187014286Y-98012628D02*
X186957143Y-97984057D01*
X186957143Y-97984057D02*
X186842857Y-97955485D01*
X186842857Y-97955485D02*
X186785714Y-97926914D01*
X186785714Y-97926914D02*
X186757143Y-97898342D01*
X186757143Y-97898342D02*
X186728571Y-97841200D01*
X186728571Y-97841200D02*
X186728571Y-97784057D01*
X186728571Y-97784057D02*
X186757143Y-97726914D01*
X186757143Y-97726914D02*
X186785714Y-97698342D01*
X186785714Y-97698342D02*
X186842857Y-97669771D01*
X186842857Y-97669771D02*
X186985714Y-97669771D01*
X186985714Y-97669771D02*
X187071428Y-97698342D01*
X187671429Y-98212628D02*
X187642857Y-98241200D01*
X187642857Y-98241200D02*
X187557143Y-98269771D01*
X187557143Y-98269771D02*
X187500000Y-98269771D01*
X187500000Y-98269771D02*
X187414286Y-98241200D01*
X187414286Y-98241200D02*
X187357143Y-98184057D01*
X187357143Y-98184057D02*
X187328572Y-98126914D01*
X187328572Y-98126914D02*
X187300000Y-98012628D01*
X187300000Y-98012628D02*
X187300000Y-97926914D01*
X187300000Y-97926914D02*
X187328572Y-97812628D01*
X187328572Y-97812628D02*
X187357143Y-97755485D01*
X187357143Y-97755485D02*
X187414286Y-97698342D01*
X187414286Y-97698342D02*
X187500000Y-97669771D01*
X187500000Y-97669771D02*
X187557143Y-97669771D01*
X187557143Y-97669771D02*
X187642857Y-97698342D01*
X187642857Y-97698342D02*
X187671429Y-97726914D01*
X187928572Y-98269771D02*
X187928572Y-97669771D01*
X188271429Y-98269771D02*
X188014286Y-97926914D01*
X188271429Y-97669771D02*
X187928572Y-98012628D01*
X153414285Y-88669771D02*
X153128571Y-88669771D01*
X153128571Y-88669771D02*
X153099999Y-88955485D01*
X153099999Y-88955485D02*
X153128571Y-88926914D01*
X153128571Y-88926914D02*
X153185714Y-88898342D01*
X153185714Y-88898342D02*
X153328571Y-88898342D01*
X153328571Y-88898342D02*
X153385714Y-88926914D01*
X153385714Y-88926914D02*
X153414285Y-88955485D01*
X153414285Y-88955485D02*
X153442856Y-89012628D01*
X153442856Y-89012628D02*
X153442856Y-89155485D01*
X153442856Y-89155485D02*
X153414285Y-89212628D01*
X153414285Y-89212628D02*
X153385714Y-89241200D01*
X153385714Y-89241200D02*
X153328571Y-89269771D01*
X153328571Y-89269771D02*
X153185714Y-89269771D01*
X153185714Y-89269771D02*
X153128571Y-89241200D01*
X153128571Y-89241200D02*
X153099999Y-89212628D01*
X153642857Y-88869771D02*
X153785714Y-89269771D01*
X153785714Y-89269771D02*
X153928571Y-88869771D01*
X201557143Y-98269771D02*
X201557143Y-97669771D01*
X201557143Y-97669771D02*
X201757143Y-98098342D01*
X201757143Y-98098342D02*
X201957143Y-97669771D01*
X201957143Y-97669771D02*
X201957143Y-98269771D01*
X202357142Y-97669771D02*
X202471428Y-97669771D01*
X202471428Y-97669771D02*
X202528571Y-97698342D01*
X202528571Y-97698342D02*
X202585714Y-97755485D01*
X202585714Y-97755485D02*
X202614285Y-97869771D01*
X202614285Y-97869771D02*
X202614285Y-98069771D01*
X202614285Y-98069771D02*
X202585714Y-98184057D01*
X202585714Y-98184057D02*
X202528571Y-98241200D01*
X202528571Y-98241200D02*
X202471428Y-98269771D01*
X202471428Y-98269771D02*
X202357142Y-98269771D01*
X202357142Y-98269771D02*
X202300000Y-98241200D01*
X202300000Y-98241200D02*
X202242857Y-98184057D01*
X202242857Y-98184057D02*
X202214285Y-98069771D01*
X202214285Y-98069771D02*
X202214285Y-97869771D01*
X202214285Y-97869771D02*
X202242857Y-97755485D01*
X202242857Y-97755485D02*
X202300000Y-97698342D01*
X202300000Y-97698342D02*
X202357142Y-97669771D01*
X202842856Y-98241200D02*
X202928571Y-98269771D01*
X202928571Y-98269771D02*
X203071428Y-98269771D01*
X203071428Y-98269771D02*
X203128571Y-98241200D01*
X203128571Y-98241200D02*
X203157142Y-98212628D01*
X203157142Y-98212628D02*
X203185713Y-98155485D01*
X203185713Y-98155485D02*
X203185713Y-98098342D01*
X203185713Y-98098342D02*
X203157142Y-98041200D01*
X203157142Y-98041200D02*
X203128571Y-98012628D01*
X203128571Y-98012628D02*
X203071428Y-97984057D01*
X203071428Y-97984057D02*
X202957142Y-97955485D01*
X202957142Y-97955485D02*
X202899999Y-97926914D01*
X202899999Y-97926914D02*
X202871428Y-97898342D01*
X202871428Y-97898342D02*
X202842856Y-97841200D01*
X202842856Y-97841200D02*
X202842856Y-97784057D01*
X202842856Y-97784057D02*
X202871428Y-97726914D01*
X202871428Y-97726914D02*
X202899999Y-97698342D01*
X202899999Y-97698342D02*
X202957142Y-97669771D01*
X202957142Y-97669771D02*
X203099999Y-97669771D01*
X203099999Y-97669771D02*
X203185713Y-97698342D01*
X203442857Y-98269771D02*
X203442857Y-97669771D01*
X176952381Y-66454819D02*
X176952381Y-65454819D01*
X176952381Y-65454819D02*
X177190476Y-65454819D01*
X177190476Y-65454819D02*
X177333333Y-65502438D01*
X177333333Y-65502438D02*
X177428571Y-65597676D01*
X177428571Y-65597676D02*
X177476190Y-65692914D01*
X177476190Y-65692914D02*
X177523809Y-65883390D01*
X177523809Y-65883390D02*
X177523809Y-66026247D01*
X177523809Y-66026247D02*
X177476190Y-66216723D01*
X177476190Y-66216723D02*
X177428571Y-66311961D01*
X177428571Y-66311961D02*
X177333333Y-66407200D01*
X177333333Y-66407200D02*
X177190476Y-66454819D01*
X177190476Y-66454819D02*
X176952381Y-66454819D01*
X177952381Y-66454819D02*
X177952381Y-65454819D01*
X178380952Y-66407200D02*
X178523809Y-66454819D01*
X178523809Y-66454819D02*
X178761904Y-66454819D01*
X178761904Y-66454819D02*
X178857142Y-66407200D01*
X178857142Y-66407200D02*
X178904761Y-66359580D01*
X178904761Y-66359580D02*
X178952380Y-66264342D01*
X178952380Y-66264342D02*
X178952380Y-66169104D01*
X178952380Y-66169104D02*
X178904761Y-66073866D01*
X178904761Y-66073866D02*
X178857142Y-66026247D01*
X178857142Y-66026247D02*
X178761904Y-65978628D01*
X178761904Y-65978628D02*
X178571428Y-65931009D01*
X178571428Y-65931009D02*
X178476190Y-65883390D01*
X178476190Y-65883390D02*
X178428571Y-65835771D01*
X178428571Y-65835771D02*
X178380952Y-65740533D01*
X178380952Y-65740533D02*
X178380952Y-65645295D01*
X178380952Y-65645295D02*
X178428571Y-65550057D01*
X178428571Y-65550057D02*
X178476190Y-65502438D01*
X178476190Y-65502438D02*
X178571428Y-65454819D01*
X178571428Y-65454819D02*
X178809523Y-65454819D01*
X178809523Y-65454819D02*
X178952380Y-65502438D01*
X179380952Y-66454819D02*
X179380952Y-65454819D01*
X179380952Y-65454819D02*
X179761904Y-65454819D01*
X179761904Y-65454819D02*
X179857142Y-65502438D01*
X179857142Y-65502438D02*
X179904761Y-65550057D01*
X179904761Y-65550057D02*
X179952380Y-65645295D01*
X179952380Y-65645295D02*
X179952380Y-65788152D01*
X179952380Y-65788152D02*
X179904761Y-65883390D01*
X179904761Y-65883390D02*
X179857142Y-65931009D01*
X179857142Y-65931009D02*
X179761904Y-65978628D01*
X179761904Y-65978628D02*
X179380952Y-65978628D01*
X180857142Y-66454819D02*
X180380952Y-66454819D01*
X180380952Y-66454819D02*
X180380952Y-65454819D01*
X181142857Y-66169104D02*
X181619047Y-66169104D01*
X181047619Y-66454819D02*
X181380952Y-65454819D01*
X181380952Y-65454819D02*
X181714285Y-66454819D01*
X182238095Y-65978628D02*
X182238095Y-66454819D01*
X181904762Y-65454819D02*
X182238095Y-65978628D01*
X182238095Y-65978628D02*
X182571428Y-65454819D01*
X183666667Y-66454819D02*
X183666667Y-65454819D01*
X183666667Y-65931009D02*
X184238095Y-65931009D01*
X184238095Y-66454819D02*
X184238095Y-65454819D01*
X184714286Y-65931009D02*
X185047619Y-65931009D01*
X185190476Y-66454819D02*
X184714286Y-66454819D01*
X184714286Y-66454819D02*
X184714286Y-65454819D01*
X184714286Y-65454819D02*
X185190476Y-65454819D01*
X186190476Y-66454819D02*
X185857143Y-65978628D01*
X185619048Y-66454819D02*
X185619048Y-65454819D01*
X185619048Y-65454819D02*
X186000000Y-65454819D01*
X186000000Y-65454819D02*
X186095238Y-65502438D01*
X186095238Y-65502438D02*
X186142857Y-65550057D01*
X186142857Y-65550057D02*
X186190476Y-65645295D01*
X186190476Y-65645295D02*
X186190476Y-65788152D01*
X186190476Y-65788152D02*
X186142857Y-65883390D01*
X186142857Y-65883390D02*
X186095238Y-65931009D01*
X186095238Y-65931009D02*
X186000000Y-65978628D01*
X186000000Y-65978628D02*
X185619048Y-65978628D01*
X186619048Y-65931009D02*
X186952381Y-65931009D01*
X187095238Y-66454819D02*
X186619048Y-66454819D01*
X186619048Y-66454819D02*
X186619048Y-65454819D01*
X186619048Y-65454819D02*
X187095238Y-65454819D01*
X178628571Y-98269771D02*
X178428571Y-97984057D01*
X178285714Y-98269771D02*
X178285714Y-97669771D01*
X178285714Y-97669771D02*
X178514285Y-97669771D01*
X178514285Y-97669771D02*
X178571428Y-97698342D01*
X178571428Y-97698342D02*
X178599999Y-97726914D01*
X178599999Y-97726914D02*
X178628571Y-97784057D01*
X178628571Y-97784057D02*
X178628571Y-97869771D01*
X178628571Y-97869771D02*
X178599999Y-97926914D01*
X178599999Y-97926914D02*
X178571428Y-97955485D01*
X178571428Y-97955485D02*
X178514285Y-97984057D01*
X178514285Y-97984057D02*
X178285714Y-97984057D01*
X178885714Y-97955485D02*
X179085714Y-97955485D01*
X179171428Y-98269771D02*
X178885714Y-98269771D01*
X178885714Y-98269771D02*
X178885714Y-97669771D01*
X178885714Y-97669771D02*
X179171428Y-97669771D01*
X179399999Y-98241200D02*
X179485714Y-98269771D01*
X179485714Y-98269771D02*
X179628571Y-98269771D01*
X179628571Y-98269771D02*
X179685714Y-98241200D01*
X179685714Y-98241200D02*
X179714285Y-98212628D01*
X179714285Y-98212628D02*
X179742856Y-98155485D01*
X179742856Y-98155485D02*
X179742856Y-98098342D01*
X179742856Y-98098342D02*
X179714285Y-98041200D01*
X179714285Y-98041200D02*
X179685714Y-98012628D01*
X179685714Y-98012628D02*
X179628571Y-97984057D01*
X179628571Y-97984057D02*
X179514285Y-97955485D01*
X179514285Y-97955485D02*
X179457142Y-97926914D01*
X179457142Y-97926914D02*
X179428571Y-97898342D01*
X179428571Y-97898342D02*
X179399999Y-97841200D01*
X179399999Y-97841200D02*
X179399999Y-97784057D01*
X179399999Y-97784057D02*
X179428571Y-97726914D01*
X179428571Y-97726914D02*
X179457142Y-97698342D01*
X179457142Y-97698342D02*
X179514285Y-97669771D01*
X179514285Y-97669771D02*
X179657142Y-97669771D01*
X179657142Y-97669771D02*
X179742856Y-97698342D01*
X180000000Y-97955485D02*
X180200000Y-97955485D01*
X180285714Y-98269771D02*
X180000000Y-98269771D01*
X180000000Y-98269771D02*
X180000000Y-97669771D01*
X180000000Y-97669771D02*
X180285714Y-97669771D01*
X180457142Y-97669771D02*
X180800000Y-97669771D01*
X180628571Y-98269771D02*
X180628571Y-97669771D01*
X158542857Y-88698342D02*
X158485715Y-88669771D01*
X158485715Y-88669771D02*
X158400000Y-88669771D01*
X158400000Y-88669771D02*
X158314286Y-88698342D01*
X158314286Y-88698342D02*
X158257143Y-88755485D01*
X158257143Y-88755485D02*
X158228572Y-88812628D01*
X158228572Y-88812628D02*
X158200000Y-88926914D01*
X158200000Y-88926914D02*
X158200000Y-89012628D01*
X158200000Y-89012628D02*
X158228572Y-89126914D01*
X158228572Y-89126914D02*
X158257143Y-89184057D01*
X158257143Y-89184057D02*
X158314286Y-89241200D01*
X158314286Y-89241200D02*
X158400000Y-89269771D01*
X158400000Y-89269771D02*
X158457143Y-89269771D01*
X158457143Y-89269771D02*
X158542857Y-89241200D01*
X158542857Y-89241200D02*
X158571429Y-89212628D01*
X158571429Y-89212628D02*
X158571429Y-89012628D01*
X158571429Y-89012628D02*
X158457143Y-89012628D01*
X158828572Y-89269771D02*
X158828572Y-88669771D01*
X158828572Y-88669771D02*
X159171429Y-89269771D01*
X159171429Y-89269771D02*
X159171429Y-88669771D01*
X159457143Y-89269771D02*
X159457143Y-88669771D01*
X159457143Y-88669771D02*
X159600000Y-88669771D01*
X159600000Y-88669771D02*
X159685714Y-88698342D01*
X159685714Y-88698342D02*
X159742857Y-88755485D01*
X159742857Y-88755485D02*
X159771428Y-88812628D01*
X159771428Y-88812628D02*
X159800000Y-88926914D01*
X159800000Y-88926914D02*
X159800000Y-89012628D01*
X159800000Y-89012628D02*
X159771428Y-89126914D01*
X159771428Y-89126914D02*
X159742857Y-89184057D01*
X159742857Y-89184057D02*
X159685714Y-89241200D01*
X159685714Y-89241200D02*
X159600000Y-89269771D01*
X159600000Y-89269771D02*
X159457143Y-89269771D01*
X189057143Y-98269771D02*
X189057143Y-97669771D01*
X189057143Y-97669771D02*
X189257143Y-98098342D01*
X189257143Y-98098342D02*
X189457143Y-97669771D01*
X189457143Y-97669771D02*
X189457143Y-98269771D01*
X189742857Y-98269771D02*
X189742857Y-97669771D01*
X189999999Y-98241200D02*
X190085714Y-98269771D01*
X190085714Y-98269771D02*
X190228571Y-98269771D01*
X190228571Y-98269771D02*
X190285714Y-98241200D01*
X190285714Y-98241200D02*
X190314285Y-98212628D01*
X190314285Y-98212628D02*
X190342856Y-98155485D01*
X190342856Y-98155485D02*
X190342856Y-98098342D01*
X190342856Y-98098342D02*
X190314285Y-98041200D01*
X190314285Y-98041200D02*
X190285714Y-98012628D01*
X190285714Y-98012628D02*
X190228571Y-97984057D01*
X190228571Y-97984057D02*
X190114285Y-97955485D01*
X190114285Y-97955485D02*
X190057142Y-97926914D01*
X190057142Y-97926914D02*
X190028571Y-97898342D01*
X190028571Y-97898342D02*
X189999999Y-97841200D01*
X189999999Y-97841200D02*
X189999999Y-97784057D01*
X189999999Y-97784057D02*
X190028571Y-97726914D01*
X190028571Y-97726914D02*
X190057142Y-97698342D01*
X190057142Y-97698342D02*
X190114285Y-97669771D01*
X190114285Y-97669771D02*
X190257142Y-97669771D01*
X190257142Y-97669771D02*
X190342856Y-97698342D01*
X190714285Y-97669771D02*
X190828571Y-97669771D01*
X190828571Y-97669771D02*
X190885714Y-97698342D01*
X190885714Y-97698342D02*
X190942857Y-97755485D01*
X190942857Y-97755485D02*
X190971428Y-97869771D01*
X190971428Y-97869771D02*
X190971428Y-98069771D01*
X190971428Y-98069771D02*
X190942857Y-98184057D01*
X190942857Y-98184057D02*
X190885714Y-98241200D01*
X190885714Y-98241200D02*
X190828571Y-98269771D01*
X190828571Y-98269771D02*
X190714285Y-98269771D01*
X190714285Y-98269771D02*
X190657143Y-98241200D01*
X190657143Y-98241200D02*
X190600000Y-98184057D01*
X190600000Y-98184057D02*
X190571428Y-98069771D01*
X190571428Y-98069771D02*
X190571428Y-97869771D01*
X190571428Y-97869771D02*
X190600000Y-97755485D01*
X190600000Y-97755485D02*
X190657143Y-97698342D01*
X190657143Y-97698342D02*
X190714285Y-97669771D01*
X179547619Y-106431009D02*
X179880952Y-106431009D01*
X180023809Y-106954819D02*
X179547619Y-106954819D01*
X179547619Y-106954819D02*
X179547619Y-105954819D01*
X179547619Y-105954819D02*
X180023809Y-105954819D01*
X180404762Y-106907200D02*
X180547619Y-106954819D01*
X180547619Y-106954819D02*
X180785714Y-106954819D01*
X180785714Y-106954819D02*
X180880952Y-106907200D01*
X180880952Y-106907200D02*
X180928571Y-106859580D01*
X180928571Y-106859580D02*
X180976190Y-106764342D01*
X180976190Y-106764342D02*
X180976190Y-106669104D01*
X180976190Y-106669104D02*
X180928571Y-106573866D01*
X180928571Y-106573866D02*
X180880952Y-106526247D01*
X180880952Y-106526247D02*
X180785714Y-106478628D01*
X180785714Y-106478628D02*
X180595238Y-106431009D01*
X180595238Y-106431009D02*
X180500000Y-106383390D01*
X180500000Y-106383390D02*
X180452381Y-106335771D01*
X180452381Y-106335771D02*
X180404762Y-106240533D01*
X180404762Y-106240533D02*
X180404762Y-106145295D01*
X180404762Y-106145295D02*
X180452381Y-106050057D01*
X180452381Y-106050057D02*
X180500000Y-106002438D01*
X180500000Y-106002438D02*
X180595238Y-105954819D01*
X180595238Y-105954819D02*
X180833333Y-105954819D01*
X180833333Y-105954819D02*
X180976190Y-106002438D01*
X181404762Y-106954819D02*
X181404762Y-105954819D01*
X181404762Y-105954819D02*
X181785714Y-105954819D01*
X181785714Y-105954819D02*
X181880952Y-106002438D01*
X181880952Y-106002438D02*
X181928571Y-106050057D01*
X181928571Y-106050057D02*
X181976190Y-106145295D01*
X181976190Y-106145295D02*
X181976190Y-106288152D01*
X181976190Y-106288152D02*
X181928571Y-106383390D01*
X181928571Y-106383390D02*
X181880952Y-106431009D01*
X181880952Y-106431009D02*
X181785714Y-106478628D01*
X181785714Y-106478628D02*
X181404762Y-106478628D01*
X182309524Y-105954819D02*
X182928571Y-105954819D01*
X182928571Y-105954819D02*
X182595238Y-106335771D01*
X182595238Y-106335771D02*
X182738095Y-106335771D01*
X182738095Y-106335771D02*
X182833333Y-106383390D01*
X182833333Y-106383390D02*
X182880952Y-106431009D01*
X182880952Y-106431009D02*
X182928571Y-106526247D01*
X182928571Y-106526247D02*
X182928571Y-106764342D01*
X182928571Y-106764342D02*
X182880952Y-106859580D01*
X182880952Y-106859580D02*
X182833333Y-106907200D01*
X182833333Y-106907200D02*
X182738095Y-106954819D01*
X182738095Y-106954819D02*
X182452381Y-106954819D01*
X182452381Y-106954819D02*
X182357143Y-106907200D01*
X182357143Y-106907200D02*
X182309524Y-106859580D01*
X183309524Y-106050057D02*
X183357143Y-106002438D01*
X183357143Y-106002438D02*
X183452381Y-105954819D01*
X183452381Y-105954819D02*
X183690476Y-105954819D01*
X183690476Y-105954819D02*
X183785714Y-106002438D01*
X183785714Y-106002438D02*
X183833333Y-106050057D01*
X183833333Y-106050057D02*
X183880952Y-106145295D01*
X183880952Y-106145295D02*
X183880952Y-106240533D01*
X183880952Y-106240533D02*
X183833333Y-106383390D01*
X183833333Y-106383390D02*
X183261905Y-106954819D01*
X183261905Y-106954819D02*
X183880952Y-106954819D01*
X185071429Y-106954819D02*
X185071429Y-105954819D01*
X185071429Y-106431009D02*
X185642857Y-106431009D01*
X185642857Y-106954819D02*
X185642857Y-105954819D01*
X186119048Y-106431009D02*
X186452381Y-106431009D01*
X186595238Y-106954819D02*
X186119048Y-106954819D01*
X186119048Y-106954819D02*
X186119048Y-105954819D01*
X186119048Y-105954819D02*
X186595238Y-105954819D01*
X187595238Y-106954819D02*
X187261905Y-106478628D01*
X187023810Y-106954819D02*
X187023810Y-105954819D01*
X187023810Y-105954819D02*
X187404762Y-105954819D01*
X187404762Y-105954819D02*
X187500000Y-106002438D01*
X187500000Y-106002438D02*
X187547619Y-106050057D01*
X187547619Y-106050057D02*
X187595238Y-106145295D01*
X187595238Y-106145295D02*
X187595238Y-106288152D01*
X187595238Y-106288152D02*
X187547619Y-106383390D01*
X187547619Y-106383390D02*
X187500000Y-106431009D01*
X187500000Y-106431009D02*
X187404762Y-106478628D01*
X187404762Y-106478628D02*
X187023810Y-106478628D01*
X188023810Y-106431009D02*
X188357143Y-106431009D01*
X188500000Y-106954819D02*
X188023810Y-106954819D01*
X188023810Y-106954819D02*
X188023810Y-105954819D01*
X188023810Y-105954819D02*
X188500000Y-105954819D01*
X180859523Y-116954819D02*
X180859523Y-115954819D01*
X180859523Y-116335771D02*
X180954761Y-116288152D01*
X180954761Y-116288152D02*
X181145237Y-116288152D01*
X181145237Y-116288152D02*
X181240475Y-116335771D01*
X181240475Y-116335771D02*
X181288094Y-116383390D01*
X181288094Y-116383390D02*
X181335713Y-116478628D01*
X181335713Y-116478628D02*
X181335713Y-116764342D01*
X181335713Y-116764342D02*
X181288094Y-116859580D01*
X181288094Y-116859580D02*
X181240475Y-116907200D01*
X181240475Y-116907200D02*
X181145237Y-116954819D01*
X181145237Y-116954819D02*
X180954761Y-116954819D01*
X180954761Y-116954819D02*
X180859523Y-116907200D01*
X182192856Y-116288152D02*
X182192856Y-116954819D01*
X181764285Y-116288152D02*
X181764285Y-116811961D01*
X181764285Y-116811961D02*
X181811904Y-116907200D01*
X181811904Y-116907200D02*
X181907142Y-116954819D01*
X181907142Y-116954819D02*
X182049999Y-116954819D01*
X182049999Y-116954819D02*
X182145237Y-116907200D01*
X182145237Y-116907200D02*
X182192856Y-116859580D01*
X182526190Y-116288152D02*
X182907142Y-116288152D01*
X182669047Y-115954819D02*
X182669047Y-116811961D01*
X182669047Y-116811961D02*
X182716666Y-116907200D01*
X182716666Y-116907200D02*
X182811904Y-116954819D01*
X182811904Y-116954819D02*
X182907142Y-116954819D01*
X183097619Y-116288152D02*
X183478571Y-116288152D01*
X183240476Y-115954819D02*
X183240476Y-116811961D01*
X183240476Y-116811961D02*
X183288095Y-116907200D01*
X183288095Y-116907200D02*
X183383333Y-116954819D01*
X183383333Y-116954819D02*
X183478571Y-116954819D01*
X183954762Y-116954819D02*
X183859524Y-116907200D01*
X183859524Y-116907200D02*
X183811905Y-116859580D01*
X183811905Y-116859580D02*
X183764286Y-116764342D01*
X183764286Y-116764342D02*
X183764286Y-116478628D01*
X183764286Y-116478628D02*
X183811905Y-116383390D01*
X183811905Y-116383390D02*
X183859524Y-116335771D01*
X183859524Y-116335771D02*
X183954762Y-116288152D01*
X183954762Y-116288152D02*
X184097619Y-116288152D01*
X184097619Y-116288152D02*
X184192857Y-116335771D01*
X184192857Y-116335771D02*
X184240476Y-116383390D01*
X184240476Y-116383390D02*
X184288095Y-116478628D01*
X184288095Y-116478628D02*
X184288095Y-116764342D01*
X184288095Y-116764342D02*
X184240476Y-116859580D01*
X184240476Y-116859580D02*
X184192857Y-116907200D01*
X184192857Y-116907200D02*
X184097619Y-116954819D01*
X184097619Y-116954819D02*
X183954762Y-116954819D01*
X184716667Y-116288152D02*
X184716667Y-116954819D01*
X184716667Y-116383390D02*
X184764286Y-116335771D01*
X184764286Y-116335771D02*
X184859524Y-116288152D01*
X184859524Y-116288152D02*
X185002381Y-116288152D01*
X185002381Y-116288152D02*
X185097619Y-116335771D01*
X185097619Y-116335771D02*
X185145238Y-116431009D01*
X185145238Y-116431009D02*
X185145238Y-116954819D01*
X185621429Y-116288152D02*
X185621429Y-117288152D01*
X185621429Y-116335771D02*
X185716667Y-116288152D01*
X185716667Y-116288152D02*
X185907143Y-116288152D01*
X185907143Y-116288152D02*
X186002381Y-116335771D01*
X186002381Y-116335771D02*
X186050000Y-116383390D01*
X186050000Y-116383390D02*
X186097619Y-116478628D01*
X186097619Y-116478628D02*
X186097619Y-116764342D01*
X186097619Y-116764342D02*
X186050000Y-116859580D01*
X186050000Y-116859580D02*
X186002381Y-116907200D01*
X186002381Y-116907200D02*
X185907143Y-116954819D01*
X185907143Y-116954819D02*
X185716667Y-116954819D01*
X185716667Y-116954819D02*
X185621429Y-116907200D01*
X186526191Y-116954819D02*
X186526191Y-116288152D01*
X186526191Y-115954819D02*
X186478572Y-116002438D01*
X186478572Y-116002438D02*
X186526191Y-116050057D01*
X186526191Y-116050057D02*
X186573810Y-116002438D01*
X186573810Y-116002438D02*
X186526191Y-115954819D01*
X186526191Y-115954819D02*
X186526191Y-116050057D01*
X187002381Y-116288152D02*
X187002381Y-116954819D01*
X187002381Y-116383390D02*
X187050000Y-116335771D01*
X187050000Y-116335771D02*
X187145238Y-116288152D01*
X187145238Y-116288152D02*
X187288095Y-116288152D01*
X187288095Y-116288152D02*
X187383333Y-116335771D01*
X187383333Y-116335771D02*
X187430952Y-116431009D01*
X187430952Y-116431009D02*
X187430952Y-116954819D01*
X187859524Y-116907200D02*
X187954762Y-116954819D01*
X187954762Y-116954819D02*
X188145238Y-116954819D01*
X188145238Y-116954819D02*
X188240476Y-116907200D01*
X188240476Y-116907200D02*
X188288095Y-116811961D01*
X188288095Y-116811961D02*
X188288095Y-116764342D01*
X188288095Y-116764342D02*
X188240476Y-116669104D01*
X188240476Y-116669104D02*
X188145238Y-116621485D01*
X188145238Y-116621485D02*
X188002381Y-116621485D01*
X188002381Y-116621485D02*
X187907143Y-116573866D01*
X187907143Y-116573866D02*
X187859524Y-116478628D01*
X187859524Y-116478628D02*
X187859524Y-116431009D01*
X187859524Y-116431009D02*
X187907143Y-116335771D01*
X187907143Y-116335771D02*
X188002381Y-116288152D01*
X188002381Y-116288152D02*
X188145238Y-116288152D01*
X188145238Y-116288152D02*
X188240476Y-116335771D01*
X148214286Y-114704819D02*
X148214286Y-115514342D01*
X148214286Y-115514342D02*
X148261905Y-115609580D01*
X148261905Y-115609580D02*
X148309524Y-115657200D01*
X148309524Y-115657200D02*
X148404762Y-115704819D01*
X148404762Y-115704819D02*
X148595238Y-115704819D01*
X148595238Y-115704819D02*
X148690476Y-115657200D01*
X148690476Y-115657200D02*
X148738095Y-115609580D01*
X148738095Y-115609580D02*
X148785714Y-115514342D01*
X148785714Y-115514342D02*
X148785714Y-114704819D01*
X149261905Y-115704819D02*
X149261905Y-114704819D01*
X149261905Y-114704819D02*
X149642857Y-114704819D01*
X149642857Y-114704819D02*
X149738095Y-114752438D01*
X149738095Y-114752438D02*
X149785714Y-114800057D01*
X149785714Y-114800057D02*
X149833333Y-114895295D01*
X149833333Y-114895295D02*
X149833333Y-115038152D01*
X149833333Y-115038152D02*
X149785714Y-115133390D01*
X149785714Y-115133390D02*
X149738095Y-115181009D01*
X149738095Y-115181009D02*
X149642857Y-115228628D01*
X149642857Y-115228628D02*
X149261905Y-115228628D01*
X140297618Y-123454819D02*
X139821428Y-123454819D01*
X139821428Y-123454819D02*
X139821428Y-122454819D01*
X140630952Y-122931009D02*
X140964285Y-122931009D01*
X141107142Y-123454819D02*
X140630952Y-123454819D01*
X140630952Y-123454819D02*
X140630952Y-122454819D01*
X140630952Y-122454819D02*
X141107142Y-122454819D01*
X141869047Y-122931009D02*
X141535714Y-122931009D01*
X141535714Y-123454819D02*
X141535714Y-122454819D01*
X141535714Y-122454819D02*
X142011904Y-122454819D01*
X142250000Y-122454819D02*
X142821428Y-122454819D01*
X142535714Y-123454819D02*
X142535714Y-122454819D01*
X155416666Y-123454819D02*
X155083333Y-122978628D01*
X154845238Y-123454819D02*
X154845238Y-122454819D01*
X154845238Y-122454819D02*
X155226190Y-122454819D01*
X155226190Y-122454819D02*
X155321428Y-122502438D01*
X155321428Y-122502438D02*
X155369047Y-122550057D01*
X155369047Y-122550057D02*
X155416666Y-122645295D01*
X155416666Y-122645295D02*
X155416666Y-122788152D01*
X155416666Y-122788152D02*
X155369047Y-122883390D01*
X155369047Y-122883390D02*
X155321428Y-122931009D01*
X155321428Y-122931009D02*
X155226190Y-122978628D01*
X155226190Y-122978628D02*
X154845238Y-122978628D01*
X155845238Y-123454819D02*
X155845238Y-122454819D01*
X156845237Y-122502438D02*
X156749999Y-122454819D01*
X156749999Y-122454819D02*
X156607142Y-122454819D01*
X156607142Y-122454819D02*
X156464285Y-122502438D01*
X156464285Y-122502438D02*
X156369047Y-122597676D01*
X156369047Y-122597676D02*
X156321428Y-122692914D01*
X156321428Y-122692914D02*
X156273809Y-122883390D01*
X156273809Y-122883390D02*
X156273809Y-123026247D01*
X156273809Y-123026247D02*
X156321428Y-123216723D01*
X156321428Y-123216723D02*
X156369047Y-123311961D01*
X156369047Y-123311961D02*
X156464285Y-123407200D01*
X156464285Y-123407200D02*
X156607142Y-123454819D01*
X156607142Y-123454819D02*
X156702380Y-123454819D01*
X156702380Y-123454819D02*
X156845237Y-123407200D01*
X156845237Y-123407200D02*
X156892856Y-123359580D01*
X156892856Y-123359580D02*
X156892856Y-123026247D01*
X156892856Y-123026247D02*
X156702380Y-123026247D01*
X157321428Y-123454819D02*
X157321428Y-122454819D01*
X157321428Y-122931009D02*
X157892856Y-122931009D01*
X157892856Y-123454819D02*
X157892856Y-122454819D01*
X158226190Y-122454819D02*
X158797618Y-122454819D01*
X158511904Y-123454819D02*
X158511904Y-122454819D01*
X147119048Y-131204819D02*
X147119048Y-130204819D01*
X147119048Y-130204819D02*
X147357143Y-130204819D01*
X147357143Y-130204819D02*
X147500000Y-130252438D01*
X147500000Y-130252438D02*
X147595238Y-130347676D01*
X147595238Y-130347676D02*
X147642857Y-130442914D01*
X147642857Y-130442914D02*
X147690476Y-130633390D01*
X147690476Y-130633390D02*
X147690476Y-130776247D01*
X147690476Y-130776247D02*
X147642857Y-130966723D01*
X147642857Y-130966723D02*
X147595238Y-131061961D01*
X147595238Y-131061961D02*
X147500000Y-131157200D01*
X147500000Y-131157200D02*
X147357143Y-131204819D01*
X147357143Y-131204819D02*
X147119048Y-131204819D01*
X148309524Y-130204819D02*
X148500000Y-130204819D01*
X148500000Y-130204819D02*
X148595238Y-130252438D01*
X148595238Y-130252438D02*
X148690476Y-130347676D01*
X148690476Y-130347676D02*
X148738095Y-130538152D01*
X148738095Y-130538152D02*
X148738095Y-130871485D01*
X148738095Y-130871485D02*
X148690476Y-131061961D01*
X148690476Y-131061961D02*
X148595238Y-131157200D01*
X148595238Y-131157200D02*
X148500000Y-131204819D01*
X148500000Y-131204819D02*
X148309524Y-131204819D01*
X148309524Y-131204819D02*
X148214286Y-131157200D01*
X148214286Y-131157200D02*
X148119048Y-131061961D01*
X148119048Y-131061961D02*
X148071429Y-130871485D01*
X148071429Y-130871485D02*
X148071429Y-130538152D01*
X148071429Y-130538152D02*
X148119048Y-130347676D01*
X148119048Y-130347676D02*
X148214286Y-130252438D01*
X148214286Y-130252438D02*
X148309524Y-130204819D01*
X149071429Y-130204819D02*
X149309524Y-131204819D01*
X149309524Y-131204819D02*
X149500000Y-130490533D01*
X149500000Y-130490533D02*
X149690476Y-131204819D01*
X149690476Y-131204819D02*
X149928572Y-130204819D01*
X150309524Y-131204819D02*
X150309524Y-130204819D01*
X150309524Y-130204819D02*
X150880952Y-131204819D01*
X150880952Y-131204819D02*
X150880952Y-130204819D01*
X181440476Y-123169104D02*
X181916666Y-123169104D01*
X181345238Y-123454819D02*
X181678571Y-122454819D01*
X181678571Y-122454819D02*
X182011904Y-123454819D01*
X182107143Y-123550057D02*
X182869047Y-123550057D01*
X183107143Y-123454819D02*
X183107143Y-122454819D01*
X183107143Y-122835771D02*
X183202381Y-122788152D01*
X183202381Y-122788152D02*
X183392857Y-122788152D01*
X183392857Y-122788152D02*
X183488095Y-122835771D01*
X183488095Y-122835771D02*
X183535714Y-122883390D01*
X183535714Y-122883390D02*
X183583333Y-122978628D01*
X183583333Y-122978628D02*
X183583333Y-123264342D01*
X183583333Y-123264342D02*
X183535714Y-123359580D01*
X183535714Y-123359580D02*
X183488095Y-123407200D01*
X183488095Y-123407200D02*
X183392857Y-123454819D01*
X183392857Y-123454819D02*
X183202381Y-123454819D01*
X183202381Y-123454819D02*
X183107143Y-123407200D01*
X183869048Y-122788152D02*
X184250000Y-122788152D01*
X184011905Y-122454819D02*
X184011905Y-123311961D01*
X184011905Y-123311961D02*
X184059524Y-123407200D01*
X184059524Y-123407200D02*
X184154762Y-123454819D01*
X184154762Y-123454819D02*
X184250000Y-123454819D01*
X184583334Y-122788152D02*
X184583334Y-123454819D01*
X184583334Y-122883390D02*
X184630953Y-122835771D01*
X184630953Y-122835771D02*
X184726191Y-122788152D01*
X184726191Y-122788152D02*
X184869048Y-122788152D01*
X184869048Y-122788152D02*
X184964286Y-122835771D01*
X184964286Y-122835771D02*
X185011905Y-122931009D01*
X185011905Y-122931009D02*
X185011905Y-123454819D01*
X195249999Y-122931009D02*
X195392856Y-122978628D01*
X195392856Y-122978628D02*
X195440475Y-123026247D01*
X195440475Y-123026247D02*
X195488094Y-123121485D01*
X195488094Y-123121485D02*
X195488094Y-123264342D01*
X195488094Y-123264342D02*
X195440475Y-123359580D01*
X195440475Y-123359580D02*
X195392856Y-123407200D01*
X195392856Y-123407200D02*
X195297618Y-123454819D01*
X195297618Y-123454819D02*
X194916666Y-123454819D01*
X194916666Y-123454819D02*
X194916666Y-122454819D01*
X194916666Y-122454819D02*
X195249999Y-122454819D01*
X195249999Y-122454819D02*
X195345237Y-122502438D01*
X195345237Y-122502438D02*
X195392856Y-122550057D01*
X195392856Y-122550057D02*
X195440475Y-122645295D01*
X195440475Y-122645295D02*
X195440475Y-122740533D01*
X195440475Y-122740533D02*
X195392856Y-122835771D01*
X195392856Y-122835771D02*
X195345237Y-122883390D01*
X195345237Y-122883390D02*
X195249999Y-122931009D01*
X195249999Y-122931009D02*
X194916666Y-122931009D01*
X195678571Y-123550057D02*
X196440475Y-123550057D01*
X196678571Y-123454819D02*
X196678571Y-122454819D01*
X196678571Y-122835771D02*
X196773809Y-122788152D01*
X196773809Y-122788152D02*
X196964285Y-122788152D01*
X196964285Y-122788152D02*
X197059523Y-122835771D01*
X197059523Y-122835771D02*
X197107142Y-122883390D01*
X197107142Y-122883390D02*
X197154761Y-122978628D01*
X197154761Y-122978628D02*
X197154761Y-123264342D01*
X197154761Y-123264342D02*
X197107142Y-123359580D01*
X197107142Y-123359580D02*
X197059523Y-123407200D01*
X197059523Y-123407200D02*
X196964285Y-123454819D01*
X196964285Y-123454819D02*
X196773809Y-123454819D01*
X196773809Y-123454819D02*
X196678571Y-123407200D01*
X197440476Y-122788152D02*
X197821428Y-122788152D01*
X197583333Y-122454819D02*
X197583333Y-123311961D01*
X197583333Y-123311961D02*
X197630952Y-123407200D01*
X197630952Y-123407200D02*
X197726190Y-123454819D01*
X197726190Y-123454819D02*
X197821428Y-123454819D01*
X198154762Y-122788152D02*
X198154762Y-123454819D01*
X198154762Y-122883390D02*
X198202381Y-122835771D01*
X198202381Y-122835771D02*
X198297619Y-122788152D01*
X198297619Y-122788152D02*
X198440476Y-122788152D01*
X198440476Y-122788152D02*
X198535714Y-122835771D01*
X198535714Y-122835771D02*
X198583333Y-122931009D01*
X198583333Y-122931009D02*
X198583333Y-123454819D01*
D11*
%TO.C,buttonpins*%
X165610000Y-118620000D02*
X165610000Y-121380000D01*
X201280000Y-118620000D02*
X165610000Y-118620000D01*
X201280000Y-118620000D02*
X201280000Y-121380000D01*
X201280000Y-121380000D02*
X165610000Y-121380000D01*
X202550000Y-118620000D02*
X203930000Y-118620000D01*
X203930000Y-118620000D02*
X203930000Y-120000000D01*
%TO.C,UP*%
X145500000Y-118750000D02*
X145500000Y-120250000D01*
X146750000Y-122750000D02*
X151250000Y-122750000D01*
X151250000Y-116250000D02*
X146750000Y-116250000D01*
X152500000Y-120250000D02*
X152500000Y-118750000D01*
%TO.C,LEFT*%
X137750000Y-126500000D02*
X137750000Y-128000000D01*
X139000000Y-130500000D02*
X143500000Y-130500000D01*
X143500000Y-124000000D02*
X139000000Y-124000000D01*
X144750000Y-128000000D02*
X144750000Y-126500000D01*
%TO.C,RIGHT*%
X153250000Y-126500000D02*
X153250000Y-128000000D01*
X154500000Y-130500000D02*
X159000000Y-130500000D01*
X159000000Y-124000000D02*
X154500000Y-124000000D01*
X160250000Y-128000000D02*
X160250000Y-126500000D01*
%TO.C,DOWN*%
X145500000Y-134250000D02*
X145500000Y-135750000D01*
X146750000Y-138250000D02*
X151250000Y-138250000D01*
X151250000Y-131750000D02*
X146750000Y-131750000D01*
X152500000Y-135750000D02*
X152500000Y-134250000D01*
%TO.C,A_btn*%
X179750000Y-126500000D02*
X179750000Y-128000000D01*
X181000000Y-130500000D02*
X185500000Y-130500000D01*
X185500000Y-124000000D02*
X181000000Y-124000000D01*
X186750000Y-128000000D02*
X186750000Y-126500000D01*
%TO.C,J2*%
X129620000Y-74050000D02*
X129620000Y-53620000D01*
X132380000Y-53620000D02*
X129620000Y-53620000D01*
X132380000Y-74050000D02*
X129620000Y-74050000D01*
X132380000Y-74050000D02*
X132380000Y-53620000D01*
X132380000Y-75320000D02*
X132380000Y-76700000D01*
X132380000Y-76700000D02*
X131000000Y-76700000D01*
%TO.C,J1*%
X165620000Y-96380000D02*
X165620000Y-95000000D01*
X167000000Y-96380000D02*
X165620000Y-96380000D01*
X168270000Y-93620000D02*
X203940000Y-93620000D01*
X168270000Y-96380000D02*
X168270000Y-93620000D01*
X168270000Y-96380000D02*
X203940000Y-96380000D01*
X203940000Y-96380000D02*
X203940000Y-93620000D01*
%TO.C,5v*%
X153620000Y-87380000D02*
X153620000Y-86000000D01*
X155000000Y-87380000D02*
X153620000Y-87380000D01*
X156270000Y-84620000D02*
X158920000Y-84620000D01*
X156270000Y-87380000D02*
X156270000Y-84620000D01*
X156270000Y-87380000D02*
X158920000Y-87380000D01*
X158920000Y-87380000D02*
X158920000Y-84620000D01*
%TO.C,B_btn*%
X193250000Y-126500000D02*
X193250000Y-128000000D01*
X194500000Y-130500000D02*
X199000000Y-130500000D01*
X199000000Y-124000000D02*
X194500000Y-124000000D01*
X200250000Y-128000000D02*
X200250000Y-126500000D01*
%TD*%
M02*
