M48
; DRILL file {KiCad 9.0.2} date 2025-08-31T18:29:44+0200
; FORMAT={-:-/ absolute / metric / decimal}
; #@! TF.CreationDate,2025-08-31T18:29:44+02:00
; #@! TF.GenerationSoftware,Kicad,Pcbnew,9.0.2
; #@! TF.FileFunction,Plated,1,2,PTH
FMAT,2
METRIC
; #@! TA.AperFunction,Plated,PTH,ViaDrill
T1C0.300
; #@! TA.AperFunction,Plated,PTH,ComponentDrill
T2C1.000
; #@! TA.AperFunction,Plated,PTH,ComponentDrill
T3C1.100
%
G90
G05
T1
X148.5Y-129.0
X150.0Y-103.5
X157.5Y-114.0
X159.5Y-117.0
X164.0Y-130.5
X171.0Y-132.0
X191.0Y-127.0
T2
X131.0Y-55.0
X131.0Y-57.54
X131.0Y-60.08
X131.0Y-62.62
X131.0Y-65.16
X131.0Y-67.7
X131.0Y-70.24
X131.0Y-72.78
X131.0Y-75.32
X155.0Y-86.0
X157.54Y-86.0
X166.99Y-120.0
X167.0Y-95.0
X169.53Y-120.0
X169.54Y-95.0
X172.07Y-120.0
X172.08Y-95.0
X174.61Y-120.0
X174.62Y-95.0
X177.15Y-120.0
X177.16Y-95.0
X179.69Y-120.0
X179.7Y-95.0
X182.23Y-120.0
X182.24Y-95.0
X184.77Y-120.0
X184.78Y-95.0
X187.31Y-120.0
X187.32Y-95.0
X189.85Y-120.0
X189.86Y-95.0
X192.39Y-120.0
X192.4Y-95.0
X194.93Y-120.0
X194.94Y-95.0
X197.47Y-120.0
X197.48Y-95.0
X200.01Y-120.0
X200.02Y-95.0
X202.55Y-120.0
X202.56Y-95.0
T3
X138.0Y-125.0
X138.0Y-129.5
X144.5Y-125.0
X144.5Y-129.5
X145.75Y-117.25
X145.75Y-121.75
X145.75Y-132.75
X145.75Y-137.25
X152.25Y-117.25
X152.25Y-121.75
X152.25Y-132.75
X152.25Y-137.25
X153.5Y-125.0
X153.5Y-129.5
X160.0Y-125.0
X160.0Y-129.5
X180.0Y-125.0
X180.0Y-129.5
X186.5Y-125.0
X186.5Y-129.5
X193.5Y-125.0
X193.5Y-129.5
X200.0Y-125.0
X200.0Y-129.5
M30
