%TF.GenerationSoftware,KiCad,Pcbnew,9.0.2*%
%TF.CreationDate,2025-08-31T18:29:41+02:00*%
%TF.ProjectId,PocketGamePCB,506f636b-6574-4476-916d-655043422e6b,rev?*%
%TF.SameCoordinates,Original*%
%TF.FileFunction,Copper,L1,Top*%
%TF.FilePolarity,Positive*%
%FSLAX46Y46*%
G04 Gerber Fmt 4.6, Leading zero omitted, Abs format (unit mm)*
G04 Created by KiCad (PCBNEW 9.0.2) date 2025-08-31 18:29:41*
%MOMM*%
%LPD*%
G01*
G04 APERTURE LIST*
%TA.AperFunction,ComponentPad*%
%ADD10R,1.700000X1.700000*%
%TD*%
%TA.AperFunction,ComponentPad*%
%ADD11C,1.700000*%
%TD*%
%TA.AperFunction,ComponentPad*%
%ADD12C,2.000000*%
%TD*%
%TA.AperFunction,ViaPad*%
%ADD13C,0.600000*%
%TD*%
%TA.AperFunction,Conductor*%
%ADD14C,0.500000*%
%TD*%
G04 APERTURE END LIST*
D10*
%TO.P,buttonpins,1,Pin_1*%
%TO.N,unconnected-(buttonpins1-Pin_1-Pad1)*%
X202550000Y-120000000D03*
D11*
%TO.P,buttonpins,2,Pin_2*%
%TO.N,unconnected-(buttonpins1-Pin_2-Pad2)*%
X200010000Y-120000000D03*
%TO.P,buttonpins,3,Pin_3*%
%TO.N,unconnected-(buttonpins1-Pin_3-Pad3)*%
X197470000Y-120000000D03*
%TO.P,buttonpins,4,Pin_4*%
%TO.N,unconnected-(buttonpins1-Pin_4-Pad4)*%
X194930000Y-120000000D03*
%TO.P,buttonpins,5,Pin_5*%
%TO.N,unconnected-(buttonpins1-Pin_5-Pad5)*%
X192390000Y-120000000D03*
%TO.P,buttonpins,6,Pin_6*%
%TO.N,unconnected-(buttonpins1-Pin_6-Pad6)*%
X189850000Y-120000000D03*
%TO.P,buttonpins,7,Pin_7*%
%TO.N,unconnected-(buttonpins1-Pin_7-Pad7)*%
X187310000Y-120000000D03*
%TO.P,buttonpins,8,Pin_8*%
%TO.N,Net-(buttonpins1-Pin_8)*%
X184770000Y-120000000D03*
%TO.P,buttonpins,9,Pin_9*%
%TO.N,Net-(buttonpins1-Pin_9)*%
X182230000Y-120000000D03*
%TO.P,buttonpins,10,Pin_10*%
%TO.N,Net-(buttonpins1-Pin_10)*%
X179690000Y-120000000D03*
%TO.P,buttonpins,11,Pin_11*%
%TO.N,Net-(buttonpins1-Pin_11)*%
X177150000Y-120000000D03*
%TO.P,buttonpins,12,Pin_12*%
%TO.N,Net-(buttonpins1-Pin_12)*%
X174610000Y-120000000D03*
%TO.P,buttonpins,13,Pin_13*%
%TO.N,Net-(buttonpins1-Pin_13)*%
X172070000Y-120000000D03*
%TO.P,buttonpins,14,Pin_14*%
%TO.N,Net-(J2-Pin_1)*%
X169530000Y-120000000D03*
%TO.P,buttonpins,15,Pin_15*%
%TO.N,Net-(J2-Pin_2)*%
X166990000Y-120000000D03*
%TD*%
D12*
%TO.P,UP,1,1*%
%TO.N,Net-(J2-Pin_2)*%
X145750000Y-117250000D03*
X152250000Y-117250000D03*
%TO.P,UP,2,2*%
%TO.N,Net-(buttonpins1-Pin_13)*%
X145750000Y-121750000D03*
X152250000Y-121750000D03*
%TD*%
%TO.P,LEFT,1,1*%
%TO.N,Net-(J2-Pin_2)*%
X138000000Y-125000000D03*
X144500000Y-125000000D03*
%TO.P,LEFT,2,2*%
%TO.N,Net-(buttonpins1-Pin_11)*%
X138000000Y-129500000D03*
X144500000Y-129500000D03*
%TD*%
%TO.P,RIGHT,1,1*%
%TO.N,Net-(J2-Pin_2)*%
X153500000Y-125000000D03*
X160000000Y-125000000D03*
%TO.P,RIGHT,2,2*%
%TO.N,Net-(buttonpins1-Pin_10)*%
X153500000Y-129500000D03*
X160000000Y-129500000D03*
%TD*%
%TO.P,DOWN,1,1*%
%TO.N,Net-(J2-Pin_2)*%
X145750000Y-132750000D03*
X152250000Y-132750000D03*
%TO.P,DOWN,2,2*%
%TO.N,Net-(buttonpins1-Pin_12)*%
X145750000Y-137250000D03*
X152250000Y-137250000D03*
%TD*%
%TO.P,A_btn,1,1*%
%TO.N,Net-(J2-Pin_2)*%
X180000000Y-125000000D03*
X186500000Y-125000000D03*
%TO.P,A_btn,2,2*%
%TO.N,Net-(buttonpins1-Pin_9)*%
X180000000Y-129500000D03*
X186500000Y-129500000D03*
%TD*%
D10*
%TO.P,J2,1,Pin_1*%
%TO.N,Net-(J2-Pin_1)*%
X131000000Y-75320000D03*
D11*
%TO.P,J2,2,Pin_2*%
%TO.N,Net-(J2-Pin_2)*%
X131000000Y-72780000D03*
%TO.P,J2,3,Pin_3*%
%TO.N,Net-(J1-Pin_4)*%
X131000000Y-70240000D03*
%TO.P,J2,4,Pin_4*%
%TO.N,Net-(J1-Pin_6)*%
X131000000Y-67700000D03*
%TO.P,J2,5,Pin_5*%
%TO.N,Net-(J1-Pin_7)*%
X131000000Y-65160000D03*
%TO.P,J2,6,Pin_6*%
%TO.N,Net-(J1-Pin_15)*%
X131000000Y-62620000D03*
%TO.P,J2,7,Pin_7*%
%TO.N,Net-(J1-Pin_9)*%
X131000000Y-60080000D03*
%TO.P,J2,8,Pin_8*%
%TO.N,Net-(J1-Pin_1)*%
X131000000Y-57540000D03*
%TO.P,J2,9,Pin_9*%
%TO.N,Net-(J1-Pin_10)*%
X131000000Y-55000000D03*
%TD*%
D10*
%TO.P,J1,1,Pin_1*%
%TO.N,Net-(J1-Pin_1)*%
X167000000Y-95000000D03*
D11*
%TO.P,J1,2,Pin_2*%
%TO.N,unconnected-(J1-Pin_2-Pad2)*%
X169540000Y-95000000D03*
%TO.P,J1,3,Pin_3*%
%TO.N,unconnected-(J1-Pin_3-Pad3)*%
X172080000Y-95000000D03*
%TO.P,J1,4,Pin_4*%
%TO.N,Net-(J1-Pin_4)*%
X174620000Y-95000000D03*
%TO.P,J1,5,Pin_5*%
%TO.N,unconnected-(J1-Pin_5-Pad5)*%
X177160000Y-95000000D03*
%TO.P,J1,6,Pin_6*%
%TO.N,Net-(J1-Pin_6)*%
X179700000Y-95000000D03*
%TO.P,J1,7,Pin_7*%
%TO.N,Net-(J1-Pin_7)*%
X182240000Y-95000000D03*
%TO.P,J1,8,Pin_8*%
%TO.N,unconnected-(J1-Pin_8-Pad8)*%
X184780000Y-95000000D03*
%TO.P,J1,9,Pin_9*%
%TO.N,Net-(J1-Pin_9)*%
X187320000Y-95000000D03*
%TO.P,J1,10,Pin_10*%
%TO.N,Net-(J1-Pin_10)*%
X189860000Y-95000000D03*
%TO.P,J1,11,Pin_11*%
%TO.N,unconnected-(J1-Pin_11-Pad11)*%
X192400000Y-95000000D03*
%TO.P,J1,12,Pin_12*%
%TO.N,unconnected-(J1-Pin_12-Pad12)*%
X194940000Y-95000000D03*
%TO.P,J1,13,Pin_13*%
%TO.N,unconnected-(J1-Pin_13-Pad13)*%
X197480000Y-95000000D03*
%TO.P,J1,14,Pin_14*%
%TO.N,unconnected-(J1-Pin_14-Pad14)*%
X200020000Y-95000000D03*
%TO.P,J1,15,Pin_15*%
%TO.N,Net-(J1-Pin_15)*%
X202560000Y-95000000D03*
%TD*%
D10*
%TO.P,5v,1,Pin_1*%
%TO.N,Net-(J2-Pin_1)*%
X155000000Y-86000000D03*
D11*
%TO.P,5v,2,Pin_2*%
%TO.N,Net-(J2-Pin_2)*%
X157540000Y-86000000D03*
%TD*%
D12*
%TO.P,B_btn,1,1*%
%TO.N,Net-(J2-Pin_2)*%
X193500000Y-125000000D03*
X200000000Y-125000000D03*
%TO.P,B_btn,2,2*%
%TO.N,Net-(buttonpins1-Pin_8)*%
X193500000Y-129500000D03*
X200000000Y-129500000D03*
%TD*%
D13*
%TO.N,*%
X191000000Y-127000000D03*
X159500000Y-117000000D03*
X150000000Y-103500000D03*
X164000000Y-130500000D03*
X148500000Y-129000000D03*
X157500000Y-114000000D03*
%TO.N,Net-(buttonpins1-Pin_12)*%
X171000000Y-132000000D03*
%TD*%
D14*
%TO.N,*%
X161245000Y-117255000D02*
X164245000Y-117255000D01*
X152500000Y-103500000D02*
X155000000Y-101000000D01*
X169530000Y-120000000D02*
X157540000Y-108010000D01*
X155000000Y-108010000D02*
X155000000Y-107000000D01*
X155995000Y-109005000D02*
X155000000Y-108010000D01*
X150000000Y-103500000D02*
X152500000Y-103500000D01*
X155000000Y-101000000D02*
X155000000Y-86000000D01*
X155000000Y-105500000D02*
X155000000Y-103500000D01*
X153995000Y-109005000D02*
X155995000Y-109005000D01*
X145750000Y-133250000D02*
X148500000Y-130500000D01*
X160745000Y-113755000D02*
X160495000Y-113505000D01*
X155000000Y-103500000D02*
X155000000Y-101000000D01*
X148500000Y-109500000D02*
X138000000Y-120000000D01*
X160495000Y-113505000D02*
X159245000Y-112255000D01*
X159500000Y-117000000D02*
X160500000Y-116000000D01*
X157500000Y-114000000D02*
X158495000Y-113005000D01*
X155000000Y-105500000D02*
X151000000Y-109500000D01*
X164000000Y-130500000D02*
X171437925Y-130500000D01*
X164245000Y-117255000D02*
X160745000Y-113755000D01*
X160500000Y-116000000D02*
X160495000Y-115995000D01*
X191000000Y-125500000D02*
X191500000Y-125000000D01*
X166990000Y-120000000D02*
X164245000Y-117255000D01*
X158495000Y-113005000D02*
X158495000Y-111505000D01*
X191000000Y-127000000D02*
X191000000Y-125500000D01*
X176937925Y-125000000D02*
X180000000Y-125000000D01*
X160495000Y-115995000D02*
X160495000Y-113505000D01*
X145750000Y-117250000D02*
X153995000Y-109005000D01*
X153500000Y-125000000D02*
X161245000Y-117255000D01*
X171437925Y-130500000D02*
X176937925Y-125000000D01*
X148500000Y-130500000D02*
X148500000Y-129000000D01*
X159245000Y-112255000D02*
X158495000Y-111505000D01*
X155000000Y-107000000D02*
X155000000Y-105500000D01*
X191500000Y-125000000D02*
X193500000Y-125000000D01*
X138000000Y-120000000D02*
X138000000Y-125000000D01*
X151000000Y-109500000D02*
X148500000Y-109500000D01*
X158495000Y-111505000D02*
X155995000Y-109005000D01*
X157540000Y-108010000D02*
X157540000Y-86000000D01*
%TO.N,Net-(buttonpins1-Pin_9)*%
X188000000Y-123000000D02*
X185115000Y-123000000D01*
X182230000Y-120115000D02*
X182230000Y-120000000D01*
X186500000Y-129500000D02*
X189500000Y-126500000D01*
X189500000Y-124500000D02*
X188000000Y-123000000D01*
X189500000Y-126500000D02*
X189500000Y-124500000D01*
X185115000Y-123000000D02*
X182230000Y-120115000D01*
%TO.N,Net-(buttonpins1-Pin_8)*%
X200500000Y-122000000D02*
X186770000Y-122000000D01*
X202500000Y-124000000D02*
X200500000Y-122000000D01*
X186770000Y-122000000D02*
X184770000Y-120000000D01*
X200000000Y-129500000D02*
X202500000Y-127000000D01*
X202500000Y-127000000D02*
X202500000Y-124000000D01*
%TO.N,Net-(buttonpins1-Pin_10)*%
X179690000Y-120000000D02*
X170190000Y-129500000D01*
X170190000Y-129500000D02*
X160000000Y-129500000D01*
%TO.N,Net-(buttonpins1-Pin_12)*%
X165750000Y-137250000D02*
X152250000Y-137250000D01*
X171000000Y-132000000D02*
X165750000Y-137250000D01*
%TO.N,Net-(J1-Pin_15)*%
X170180000Y-62620000D02*
X131000000Y-62620000D01*
X202560000Y-95000000D02*
X170180000Y-62620000D01*
%TO.N,Net-(J1-Pin_1)*%
X161500000Y-85500000D02*
X159000000Y-83000000D01*
X134000000Y-83000000D02*
X128000000Y-77000000D01*
X161500000Y-89500000D02*
X161500000Y-85500000D01*
X128000000Y-60540000D02*
X131000000Y-57540000D01*
X128000000Y-77000000D02*
X128000000Y-60540000D01*
X167000000Y-95000000D02*
X161500000Y-89500000D01*
X159000000Y-83000000D02*
X134000000Y-83000000D01*
%TO.N,Net-(J2-Pin_2)*%
X144500000Y-125000000D02*
X144000000Y-124500000D01*
%TD*%
M02*
